<svg width="316" height="294" viewBox="0 0 316 294" fill="none" xmlns="http://www.w3.org/2000/svg">
<path d="M164.5 46.0637C163.362 46.2512 162.174 47.3421 159.797 50.3422C158.473 52.0297 157.777 52.7456 156.844 53.3933C156.3 53.7683 155.706 53.8876 150.885 54.6206L149.646 54.8251L148.203 57.007C147.422 58.2001 146.285 60.1263 145.674 61.2854L144.587 63.399L145.589 64.4559C146.896 65.8365 147.252 65.8706 149.782 64.8138C153.347 63.3138 156.521 61.4729 158.609 59.6661C159.645 58.7797 160.68 58.4729 162.666 58.4899C165.925 58.524 169.422 60.2456 174.006 64.0809L176.026 65.7684H177.656C178.997 65.7854 179.455 65.8536 180.219 66.1945C182.375 67.132 184.497 68.8877 185.617 70.6775C185.991 71.257 187.281 73.7627 188.503 76.2514C190.184 79.6605 191.032 81.1775 191.966 82.4219C192.645 83.3423 193.256 84.0923 193.307 84.0923C193.358 84.0923 193.375 83.4616 193.324 82.6775C193.239 80.973 193.528 77.0696 193.884 74.973C195.514 65.4956 200.301 56.7342 206.565 51.7569C207.601 50.9387 207.804 50.5297 207.516 49.899C207.074 48.9444 204.528 47.6149 201.914 46.9842C200.403 46.6262 196.549 46.5751 195.157 46.916C192.628 47.5126 190.591 48.3819 188.52 49.7626C187.264 50.5978 186.805 50.666 184.582 50.3251C182.697 50.0524 180.966 49.5751 176.824 48.2115C172.546 46.7967 170.831 46.3365 169.1 46.0808C167.793 45.8933 165.569 45.8933 164.5 46.0637Z" fill="#BA1D1D" fill-opacity="0.85"/>
<path d="M213.236 48.3478C211.98 48.774 211.505 49.1319 210.588 50.291C210.096 50.9217 208.263 52.899 206.531 54.6888C204.8 56.4615 203.034 58.3536 202.61 58.8649C201.37 60.3479 200.148 62.3422 198.892 64.9161C196.193 70.49 195.157 74.6661 195.395 79.0639C195.531 81.9105 195.904 83.3423 197.144 85.9844L197.907 87.6207L199.13 87.8423C202.151 88.3707 204.392 89.7514 207.465 92.956C211.624 97.3026 213.949 99.5697 214.9 100.2L215.885 100.865L219.059 100.064C223.642 98.9219 224.033 98.8538 226.562 98.8538C230.755 98.8367 232.809 99.7231 235.984 102.928C237.512 104.462 238.836 106.166 241.84 110.513C246.237 116.871 248.274 119.036 251.958 121.252C253.282 122.053 256.354 125.121 257.407 126.706C259.054 129.178 260.259 132.058 260.938 135.076C261.328 136.814 261.481 141.399 261.176 142.78C260.836 144.416 259.902 145.627 257.713 147.297C256.677 148.064 255.421 149.053 254.912 149.479C254.402 149.905 253.18 150.774 252.195 151.422C248.936 153.536 247.476 155.547 247.306 158.155C247.205 159.979 247.323 160.115 249.106 160.115C250.566 160.115 252.077 159.775 253.706 159.093C259.41 156.689 260.395 156.127 262.228 154.218C264.078 152.274 265.335 150.007 266.132 147.161C266.506 145.848 266.54 145.405 266.523 142.303C266.506 140.309 266.353 137.223 266.132 134.888C265.946 132.689 265.776 129.911 265.776 128.7V126.502L264.995 124.695C262.534 119.036 258.493 113.683 252.45 108.127C249.989 105.842 249.547 105.229 248.834 103.013C248.121 100.814 247.952 99.6378 247.256 92.0185C247.052 89.8026 246.577 87.1094 246.169 85.9844C245.643 84.4844 243.657 81.2628 238.954 74.2911C234.303 67.3877 232.351 63.382 231.468 58.899C231.163 57.3649 231.129 56.7001 231.197 54.6888C231.248 53.3763 231.4 51.8251 231.536 51.2285C231.655 50.6319 231.723 50.1206 231.655 50.0865C231.485 49.9842 228.548 49.3194 227.004 49.0467C222.811 48.2796 214.645 47.8705 213.236 48.3478Z" fill="#BA1D1D" fill-opacity="0.85"/>
<path d="M101.961 52.4899C94.7467 53.0694 89.9426 54.1433 84.6972 56.3422L83.458 56.8535V58.2342C83.458 59.0013 83.407 60.4842 83.3391 61.524L83.2373 63.4331L84.4086 63.6888C85.7327 63.9956 87.0738 64.1831 90.5028 64.5752C95.3069 65.1206 97.9891 65.9388 99.7545 67.4047C100.111 67.6945 100.128 67.7456 99.8394 67.6604C99.3301 67.5411 96.0878 66.9275 94.8316 66.7229C91.6063 66.1945 90.7405 66.1263 87.617 66.1263C83.7296 66.1263 81.7944 66.4161 80.657 67.1661C78.8576 68.3422 78.0258 69.2797 78.0258 70.132C78.0258 70.6434 78.9255 71.4275 80.6061 72.382C81.9132 73.132 84.7311 75.1945 84.6123 75.3139C84.5784 75.3479 83.9163 75.2286 83.1185 75.0582C80.9116 74.5979 78.586 74.3252 77.7542 74.4616C76.7526 74.5979 75.9717 75.2968 75.3097 76.6264C75.0381 77.2059 74.8004 77.7514 74.8004 77.8536C74.8004 77.9559 75.6662 78.3821 76.7187 78.7911C80.9116 80.4446 83.6277 82.1321 85.2574 84.0753L85.7327 84.6548L85.3253 84.5696C80.9286 83.5468 80.6909 83.5128 77.6863 83.5128C74.2742 83.4957 73.0859 83.7343 70.6244 84.9616C69.2833 85.6094 69.2324 85.6775 69.0117 86.4275C68.842 87.0582 68.842 87.5014 68.9948 88.6094C69.2664 90.5014 69.2494 90.8594 68.825 91.9333C68.5194 92.7173 68.4515 93.2117 68.4515 94.9162C68.4515 97.2685 68.6722 98.1719 70.0642 101.445C71.8467 105.604 71.9994 106.064 72.4238 108.808C72.984 112.371 73.2387 114.553 73.4254 117.672C74.0874 128.291 74.0195 127.814 75.2078 129.638C78.2974 134.411 80.9965 141.314 83.0336 149.632C83.1864 150.28 83.441 151.047 83.5768 151.337C84.5953 153.365 86.904 156.723 89.1278 159.399C91.3686 162.127 97.7175 165.587 104.083 167.598C108.565 168.996 113.182 169.951 121.059 171.127C122.094 171.263 123.877 171.536 125.048 171.706L127.17 172.03L127.628 171.485C128.257 170.769 129.394 168.57 129.818 167.24C130.837 164.019 130.531 160.882 128.902 157.899C128.528 157.201 127.34 155.172 126.27 153.382C122.502 147.076 121.347 144.161 121.178 140.701C121.059 137.769 121.449 136.303 123.266 133.013C126.915 126.399 127.696 119.99 126.236 108.127C126.135 107.325 125.948 105.723 125.812 104.547C125.354 100.695 124.844 98.4787 123.758 95.598C121.823 90.4332 120.804 86.6491 120.804 84.6037C120.804 83.8196 120.753 83.5639 120.601 83.6321C120.482 83.6832 118.92 84.3309 117.155 85.0639C112.435 87.0241 110.296 88.3196 108.87 90.1264C107.241 92.206 106.732 94.2855 106.596 99.3481C106.443 105.212 107.037 108.757 109.94 119.462C112.3 128.155 113.114 132.093 113.284 135.57C113.352 137.087 113.301 137.769 113.08 138.638C112.826 139.627 111.841 141.791 111.705 141.655C111.671 141.638 111.536 140.155 111.383 138.382C110.84 131.615 109.617 125.888 107.054 118.183C105.951 114.808 103.031 107.138 102.471 106.081C102.369 105.911 102.012 104.121 101.673 102.126C101.113 98.8708 101.045 98.1719 101.045 95.3424C101.028 92.5469 101.079 92.0355 101.418 90.8594C102.08 88.5753 102.946 87.0753 104.576 85.4219C108.174 81.7741 112.656 79.1491 117.969 77.615C119.769 77.1036 119.82 77.0866 123.13 77.1377C126.05 77.1889 126.61 77.1548 127.391 76.882C127.883 76.6945 128.392 76.3877 128.511 76.2002C128.647 75.9957 128.953 75.0923 129.207 74.2059C129.445 73.3195 129.954 71.9559 130.311 71.2059L130.99 69.8081L132.212 69.2968C134.826 68.2229 137.016 67.6775 139.936 67.3706L142.007 67.1661L140.886 65.9047C137.491 62.0865 132.738 59.1206 124.284 55.4899C118.767 53.1206 119.31 53.274 115.117 52.7967C113.046 52.5581 103.778 52.3365 101.961 52.4899Z" fill="#BA1D1D" fill-opacity="0.85"/>
<path d="M158.694 62.9558C155.197 64.9331 153.533 65.6661 149.323 67.0127C140.92 69.7229 139.019 70.3707 137.135 71.1377C135.301 71.8707 134.86 72.1434 133.519 73.2854C132.687 74.0013 132.008 74.6661 132.008 74.7513C132.008 75.0582 132.857 76.9332 133.859 78.7741C135.522 81.8593 136.609 84.6548 136.388 85.2855C136.371 85.3707 135.607 84.8253 134.724 84.0582C133.842 83.3082 132.823 82.49 132.45 82.2684C131.448 81.6207 130.022 81.1946 128.936 81.1946C127.968 81.1946 127.968 81.1946 127.102 82.1491C125.948 83.4105 124.946 85.1491 124.318 86.956C123.826 88.3537 123.792 88.5923 123.792 91.081C123.775 94.7799 124.149 96.3651 126.831 103.865C129.088 110.24 129.377 111.672 129.547 117.331C129.632 120.467 129.598 121.78 129.394 123.382C128.817 127.968 127.849 131.615 125.591 137.786C124.675 140.274 124.624 140.513 124.624 141.962C124.624 144.57 125.286 145.968 128.477 150.11C131.397 153.894 131.872 155.019 132.195 158.803C132.484 162.434 132.212 164.172 130.328 170.837C128.596 176.905 128.545 177.195 128.545 180.485C128.545 183.195 128.579 183.468 128.987 184.627C129.632 186.434 130.396 187.61 131.838 189.076C135.013 192.28 137.05 193.729 139.087 194.206C140.394 194.513 143.212 194.479 146.37 194.121C147.796 193.968 149.069 193.866 149.221 193.9C149.663 193.985 147.592 195.297 145.843 196.064C144.995 196.422 143.399 197.053 142.278 197.445C138.119 198.894 138.272 198.826 138.493 199.099C138.849 199.542 141.939 201.519 143.059 202.03C145.096 202.951 147.354 203.718 150.851 204.672C158.066 206.667 158.541 206.854 166.197 210.962C168.064 211.968 169.609 212.752 169.643 212.735C169.66 212.701 169.27 210.161 168.76 207.076C167.199 197.633 166.638 192.724 166.638 188.309C166.638 184.354 165.976 181.746 163.888 177.502C162.513 174.723 156.283 165.314 155.044 164.155C154.552 163.695 153.245 162.757 152.141 162.042C150.172 160.797 150.019 160.729 146.709 159.774C144.825 159.246 142.737 158.667 142.075 158.496C141.396 158.343 140.836 158.138 140.836 158.07C140.836 157.78 143.365 155.598 144.757 154.678C145.572 154.149 146.964 153.365 147.846 152.956C149.697 152.087 149.612 152.24 149.697 149.82L149.748 148.473L147.796 147.809C144.893 146.82 140.496 145.559 138.391 145.098L136.541 144.706L137.288 144.399C139.087 143.632 142.245 143.002 145.775 142.729C147.117 142.627 148.712 142.49 149.323 142.422L150.427 142.303L150.647 141.451C151.208 139.252 151.411 137.462 151.394 134.547C151.394 129.86 150.698 126.127 148.135 116.99C146.828 112.337 146.998 109.95 149.154 102.757C150.783 97.3878 150.851 96.9958 150.681 95.1719C150.036 88.6264 150.036 83.8878 150.647 81.5355C151.174 79.5411 151.649 78.4161 152.532 77.0695C153.516 75.5354 153.992 75.1264 156.877 73.2002C161.376 70.2172 165.094 68.6491 168.149 68.4786C170.407 68.3422 171.884 67.899 172.563 67.132C173.191 66.4161 173.225 66.1093 172.716 65.8365C172.495 65.7172 171.205 64.9161 169.847 64.0468C166.316 61.7797 164.686 61.0808 162.819 61.0808C162.055 61.0808 161.665 61.2513 158.694 62.9558Z" fill="#BA1D1D" fill-opacity="0.85"/>
<path d="M173.598 69.1945C173.089 69.3138 172.139 69.5525 171.477 69.74C170.747 69.9616 169.507 70.115 168.251 70.1832C165.128 70.3195 162.887 71.0695 160.273 72.8423C158.711 73.8991 156.623 75.8593 155.282 77.5298C153.075 80.2571 152.871 80.7514 152.532 84.0071C152.345 85.6946 152.379 86.3423 152.803 90.6549C153.516 97.8992 153.313 100.371 151.7 103.524C150.749 105.399 150.613 105.945 150.63 108.041C150.647 110.104 150.868 111.28 151.87 114.86C152.243 116.172 152.701 117.979 152.888 118.865C153.075 119.752 153.381 121.166 153.567 122.019C154.671 127.2 154.806 132.621 154.077 142.473C153.499 150.212 153.364 153.74 153.686 152.837C153.72 152.735 155.214 150.434 156.979 147.723C161.987 140.104 163.634 137.223 165.162 133.354C166.571 129.826 167.521 124.882 167.267 122.479C167.199 121.95 167.046 120.433 166.893 119.121C166.486 115.183 166.655 111.075 167.402 107.138C167.844 104.786 167.487 103.473 165.043 98.6663C163.702 96.0242 163.549 95.6662 163.464 94.5412C163.328 92.9049 163.668 92.0185 164.856 90.8594C168.234 87.5014 175.517 85.1832 180.745 85.7798C183.207 86.0526 187.62 87.1776 189.165 87.9105C190.099 88.3708 190.812 88.8821 191.779 89.8367C192.526 90.5526 193.12 91.0639 193.12 90.9617C193.12 90.8594 192.968 89.9901 192.781 89.0185C191.847 84.2798 189.556 79.5071 186.076 75.0241C184.514 73.0298 181.407 69.6718 180.898 69.4502C179.608 68.8877 175.568 68.7513 173.598 69.1945Z" fill="#BA1D1D" fill-opacity="0.85"/>
<path d="M195.174 91.6094C192.849 91.9162 190.353 92.973 188.707 94.3196L188.113 94.8139L188.877 95.4446C189.301 95.7855 190.761 97.2003 192.119 98.5639C194.58 101.036 196.855 103.78 199.181 107.036C199.86 107.973 200.539 108.859 200.709 109.03C200.878 109.183 202.355 110.002 203.968 110.854C207.295 112.609 208.636 113.462 209.638 114.502C210.52 115.422 211.25 116.99 211.386 118.269C211.471 119.257 211.437 119.342 210.673 120.689C208.636 124.269 205.428 126.979 201.388 128.564C199.605 129.246 196.804 129.945 195.769 129.945C193.528 129.945 186.381 133.61 181.662 137.206C180.049 138.416 178.827 139.49 179.455 139.115C179.727 138.962 183.631 138.161 186.076 137.769C188.503 137.377 196.583 137.087 196.261 137.394C196.057 137.598 193.799 138.382 188.961 139.916C185.685 140.956 185.261 141.144 183.699 142.166C179.506 144.928 175.873 147.979 173.836 150.434C171.816 152.837 171.222 153.604 171.222 153.706C171.222 153.774 175.177 151.831 180.015 149.377C184.836 146.939 188.944 144.945 189.131 144.945C189.335 144.945 190.353 144.757 191.423 144.519C202.338 142.183 211.726 137.956 218.889 132.161L220.57 130.814L220.672 129.825C220.825 128.462 221.453 126.058 222.641 122.308C224.271 117.178 224.695 115.354 224.695 113.359C224.695 111.655 223.897 110.956 220.74 109.882C218.261 109.047 216.92 108.195 214.917 106.183C213.712 104.956 212.71 103.695 211.437 101.837C207.974 96.706 206.192 94.5242 204.749 93.6037C202.304 92.0696 198.196 91.2173 195.174 91.6094Z" fill="#BA1D1D" fill-opacity="0.85"/>
<path d="M179.54 95.0185C179.031 95.1037 178.25 95.2912 177.825 95.4276L177.061 95.6833L175.466 99.4844C173.632 103.882 172.767 106.371 172.122 109.132C171.714 110.922 171.663 111.467 171.629 114.774C171.612 116.786 171.527 119.002 171.443 119.666C171.358 120.348 171.341 120.911 171.409 120.911C171.51 120.911 173.904 118.388 175.534 116.564L175.992 116.053L175.89 117.706C175.703 120.553 174.787 124.303 173.615 126.962C173.412 127.405 173.259 127.831 173.259 127.916C173.259 128.155 175.024 128.087 176.382 127.814C177.061 127.678 178.301 127.32 179.132 127.03C184.072 125.343 185.634 125.172 188.571 126.007C193.307 127.337 198.485 127.132 202.627 125.462C205.19 124.422 208.449 121.916 209.094 120.485C209.587 119.428 209.536 116.82 209.01 115.797C208.5 114.791 207.482 114.024 206.039 113.564L204.851 113.172L203.475 113.547C202.712 113.752 200.81 114.382 199.249 114.928C195.378 116.291 193.715 116.7 191.83 116.717L190.285 116.735L188.792 115.32C186.228 112.865 184.429 111.859 182.052 111.484C180.745 111.297 180.643 111.246 180.338 110.717C179.795 109.797 179.71 109.081 179.54 104.717C179.37 100.217 179.455 99.4333 180.117 99.0072C180.321 98.8708 181.034 98.6833 181.679 98.5981C182.324 98.4958 183.292 98.3424 183.835 98.2572C185.685 97.8992 186.755 97.7117 187.773 97.5412C188.333 97.439 188.809 97.3367 188.86 97.3026C188.961 97.2003 186.958 96.314 185.38 95.7685C184.106 95.3253 181.543 94.814 180.813 94.848C180.626 94.8651 180.049 94.9333 179.54 95.0185Z" fill="#BA1D1D" fill-opacity="0.85"/>
<path d="M63.5117 101.104C58.402 104.172 53.7507 107.615 51.0855 110.274L49.5408 111.825L49.4219 112.967C49.1673 115.286 49.5577 116.854 51.3232 120.655C53.2414 124.763 53.1056 124.047 52.4436 126.791C51.9683 128.803 51.8834 129.433 51.9343 130.797C51.9683 132.212 52.0362 132.536 52.4775 133.32C52.7491 133.814 53.2245 134.462 53.53 134.735C54.0902 135.212 54.1581 135.229 55.8387 135.229C57.6042 135.212 58.5888 135.127 61.7292 134.666C63.8342 134.36 65.4639 134.223 65.4639 134.36C65.4639 134.428 63.8512 135.263 61.899 136.235C59.9298 137.206 57.6551 138.451 56.8233 138.979C55.0239 140.155 52.7831 142.235 52.4266 143.07C52.2399 143.513 52.138 144.757 52.0362 147.843C51.9513 150.757 51.8325 152.309 51.6457 152.956C51.4081 153.792 50.4405 158.956 50.2368 160.456C50.1349 161.275 51.1025 162.911 52.5624 164.377C53.6319 165.451 57.1119 168.4 59.2338 170.036C62.2215 172.337 65.7864 173.377 71.9146 173.735C79.7234 174.212 82.0151 174.536 84.7312 175.627L85.2404 175.831L84.8161 176.053C84.188 176.377 81.6925 177.212 78.62 178.116C77.1261 178.542 75.836 178.968 75.7681 179.036C75.6832 179.104 76.1076 179.223 76.7017 179.292C77.873 179.411 82.3037 180.28 83.3731 180.587L84.0522 180.792L82.6092 181.286C80.5382 181.985 77.7882 182.445 75.6153 182.445C74.6137 182.445 73.7819 182.496 73.7819 182.547C73.7819 182.871 75.9887 187.03 76.9054 188.394C79.9101 192.945 84.0012 196.337 88.4998 198.059C89.4843 198.451 89.9427 198.519 91.5214 198.519C94.2036 198.536 96.2406 197.837 97.7005 196.388C99.0586 195.059 101.214 191.053 103.659 185.343C106.036 179.786 107.631 177.059 109.906 174.74C110.891 173.735 111.281 173.223 111.111 173.155C110.975 173.121 110.144 172.848 109.261 172.576C104.593 171.144 101.435 169.508 92.1495 163.695C85.6648 159.638 86.0043 159.945 84.3068 156.451C83.2203 154.235 82.5413 152.24 81.3361 147.757C80.3854 144.297 79.5536 141.672 78.8746 140.002C78.5011 139.081 78.1616 138.587 77.5335 138.024C75.2758 135.979 73.6801 132.928 72.9331 129.263C72.5087 127.098 72.4748 122.871 72.8483 120.314C73.1368 118.422 73.0859 117.45 72.5597 114.86C71.9316 111.706 70.3359 107.479 68.5534 104.206C67.6028 102.467 65.9562 99.7742 65.8204 99.7742C65.7694 99.7742 64.7169 100.371 63.5117 101.104Z" fill="#BA1D1D" fill-opacity="0.85"/>
<path d="M224.525 102.075C222.811 102.45 221.062 103.132 218.855 104.24C217.752 104.786 216.869 105.28 216.903 105.297C216.937 105.331 218.38 105.876 220.112 106.507C223.693 107.82 225.136 108.553 226.155 109.609C227.513 111.007 227.751 112.763 226.868 114.859C225.001 119.257 225.153 118.712 225.018 121.507C224.78 126.553 223.507 130.524 220.315 136.303L219.008 138.655L216.598 140.002C213.101 141.979 212.116 142.337 209.027 142.729C203.051 143.496 198.892 144.621 194.394 146.684C193.375 147.144 192.238 147.655 191.898 147.809C191.542 147.979 191.253 148.132 191.253 148.184C191.253 148.32 193.562 148.661 196.057 148.899C201.812 149.445 209.23 147.86 215.783 144.706C218.635 143.326 220.451 142.235 222.862 140.411C223.812 139.695 225.51 138.672 226.885 137.99C229.126 136.865 232.045 135.74 232.741 135.74C232.962 135.74 232.589 136.252 231.468 137.462C226.851 142.49 225.187 145.115 224.355 148.746C223.456 152.701 222.2 155.445 220.485 157.252C219.042 158.786 218.075 159.314 215.358 160.132C212.49 161.002 208.331 161.377 204.324 161.121C201.337 160.934 201.031 160.882 192.017 158.649C187.926 157.644 185.04 157.218 182.154 157.218C178.606 157.218 176.79 157.559 173.463 158.871C171.154 159.774 170.271 160.201 167.063 161.99C165.756 162.723 164.024 163.644 163.209 164.053C161.682 164.82 161.546 164.956 161.546 166.047C161.546 166.678 161.8 167.24 162.785 168.757L163.481 169.831H165.365C167.182 169.831 167.997 169.746 173.768 168.979C176.009 168.672 177.078 168.621 179.116 168.689C182.256 168.792 183.308 169.081 186.364 170.615C191.151 173.019 193.29 173.65 196.448 173.547C198.349 173.496 198.57 173.462 199.096 173.07C203.153 170.019 205.513 169.456 215.868 168.996L219.517 168.826L220.689 168.178C221.317 167.82 223.286 166.439 225.035 165.11C228.481 162.519 229.89 161.632 231.74 160.865C232.758 160.456 233.251 160.371 235.305 160.269C236.612 160.201 238.123 160.03 238.649 159.877C241.84 159.007 244.845 156.809 248.342 152.82C249.717 151.269 250.617 150.468 252.705 148.899C257.543 145.269 258.663 143.718 259.24 139.916C259.902 135.536 259.02 132.825 254.946 126.621C252.416 122.752 252.314 122.649 245.915 118.269C244.302 117.144 242.893 116.019 241.823 114.945C240.347 113.479 240.092 113.121 239.277 111.45C238.259 109.337 236.001 106.2 234.422 104.666C232.283 102.57 230.976 102.041 227.751 101.905C226.223 101.854 225.323 101.888 224.525 102.075Z" fill="#BA1D1D" fill-opacity="0.85"/>
<path d="M184.802 102.672C184.802 103.558 185.261 104.445 186.143 105.314C186.534 105.672 186.839 106.03 186.839 106.098C186.839 106.166 186.483 106.269 186.042 106.337C184.14 106.626 182.986 107.53 183.173 108.604C183.359 109.848 184.65 110.871 186.585 111.348C187.451 111.57 192.289 111.655 192.611 111.45C192.968 111.229 193.341 109.439 193.239 108.416C193.137 107.342 192.221 105.212 191.643 104.683C190.998 104.104 185.872 101.99 185.108 101.99C184.87 101.99 184.802 102.126 184.802 102.672Z" fill="#BA1D1D" fill-opacity="0.85"/>
<path d="M183.275 128.479C179.132 129.263 174.906 131.632 170.713 135.502C167.657 138.331 164.856 141.57 160.561 147.212C158.575 149.82 155.044 155.24 155.214 155.411C155.282 155.462 156.097 155.513 157.047 155.513C159.984 155.513 161.902 154.661 165.484 151.797C168.642 149.257 170.051 147.86 174.362 142.985C180.609 135.928 182.748 134.019 187.892 131.002C190.693 129.365 191.134 129.093 191.049 129.007C191.015 128.973 190.201 128.786 189.233 128.598C187.281 128.206 185.023 128.155 183.275 128.479Z" fill="#BA1D1D" fill-opacity="0.85"/>
<path d="M236.578 161.82C234.728 162.042 232.572 162.638 231.4 163.252C230.059 163.951 228.854 165.178 226.698 168.042C224.78 170.581 224.033 171.297 222.624 171.962C221.572 172.456 219.789 172.542 218.855 172.15C216.818 171.297 212.965 171.042 210.402 171.604C208.942 171.928 207.261 172.525 206.056 173.155C204.715 173.854 204.766 173.718 205.36 175.303C207.159 180.195 208.059 184.746 208.059 188.991C208.059 191.07 207.38 195.604 207.057 195.809C206.989 195.86 206.565 194.684 206.124 193.218C204.121 186.553 202.016 182.445 199.3 179.905C197.789 178.491 196.074 177.741 194.733 177.894C194.309 177.928 193.901 178.013 193.85 178.081C193.799 178.133 194.054 179.155 194.445 180.348C195.786 184.559 196.431 187.831 196.617 191.411C196.719 193.61 196.533 196.116 196.142 197.53C195.955 198.212 195.955 198.195 195.48 195.911C193.392 185.564 190.54 180.025 185.142 175.831C182.171 173.513 179.761 172.354 176.705 171.775C174.413 171.348 170.254 171.502 167.572 172.115C166.452 172.388 165.518 172.61 165.484 172.627C165.467 172.661 165.892 173.411 166.435 174.314C167.572 176.189 168.37 178.116 168.93 180.331C169.694 183.331 169.779 184.269 169.796 191.053L169.813 197.53L170.526 199.491C171.307 201.707 171.816 203.957 172.088 206.428C172.308 208.44 172.308 214.746 172.088 217.883C171.952 219.741 171.969 220.269 172.173 220.866C172.767 222.519 173.734 225.894 173.853 226.661L173.972 227.496L173.463 226.917C173.191 226.593 171.358 224.19 169.405 221.565C165.654 216.536 163.464 214.065 161.206 212.258C158.728 210.28 157.489 209.684 152.549 208.082C143.857 205.252 140.751 203.752 137.797 200.939C136.812 200.002 135.93 198.809 133.553 195.229C130.548 190.695 128.851 187.61 128.121 185.343C127.595 183.706 127.255 181.985 127.255 180.877C127.255 179.973 127.221 179.871 126.559 179.241C125.574 178.303 123.809 177.4 122.213 176.991C120.838 176.65 117.256 176.309 115.033 176.309C113.369 176.309 112.503 176.803 110.755 178.729C109.702 179.888 109.346 180.434 108.921 181.525C108.09 183.587 106.613 186.417 104.168 190.542C100.417 196.849 98.9397 200.138 97.9042 204.434C97.7175 205.235 97.395 206.445 97.2082 207.144C96.8348 208.525 96.7669 210.604 97.0555 211.371C97.344 212.155 98.074 212.803 99.3302 213.383C100.994 214.167 101.86 214.934 104.083 217.576C106.188 220.082 107.275 221.036 108.803 221.752C110.229 222.4 111.332 222.434 113.827 221.923C114.982 221.684 116.238 221.479 116.628 221.479C117.562 221.479 118.36 221.991 118.784 222.877C119.582 224.513 122.553 225.996 125.727 226.32C126.237 226.388 128.002 226.508 129.632 226.593C134.147 226.849 137.084 227.684 143.042 230.394C151.989 234.468 152.566 234.656 159.424 235.644C172.444 237.502 179.591 239.548 185.906 243.195C187.552 244.15 187.994 244.286 192.102 245.104C192.9 245.275 194.037 245.377 194.665 245.36C196.006 245.309 198.434 245.803 200.505 246.536C201.982 247.065 206.684 248.139 206.837 247.985C207.057 247.764 207.363 245.531 207.38 244.031C207.397 239.121 205.835 235.866 198.417 225.229C196.193 222.059 194.088 218.411 194.461 218.411C194.546 218.411 195.921 219.69 197.517 221.241C201.557 225.178 204.426 228.57 208.891 234.69C210.113 236.377 211.335 238.031 211.59 238.337L212.065 238.934L212.778 237.485C213.695 235.559 215.053 234.127 218.601 231.281C223.218 227.565 223.812 226.729 225.798 221.053C227.598 215.888 228.956 212.326 229.974 210.042C232.045 205.354 234.456 201.366 236.629 199.047C238.309 197.241 239.6 195.451 241.772 191.939C245.32 186.212 246.729 184.491 250.566 181.252C252.399 179.718 253.672 178.201 254.419 176.684C254.878 175.746 254.996 175.286 255.047 174.144L255.115 172.746L254.317 171.331C251.72 166.78 248.58 164.002 244.472 162.57C242.468 161.888 238.921 161.547 236.578 161.82Z" fill="#BA1D1D" fill-opacity="0.85"/>
</svg>
